<svg width="32" height="32" viewBox="0 0 32 32" fill="none" xmlns="http://www.w3.org/2000/svg">
<path fill-rule="evenodd" clip-rule="evenodd" d="M16 0C24.8366 0 32 7.16344 32 16C32 24.8366 24.8366 32 16 32C7.16344 32 0 24.8366 0 16C0 7.16344 7.16344 0 16 0ZM16 0.957457C7.69223 0.957457 0.957457 7.69223 0.957457 16C0.957457 21.7945 4.23394 26.8235 9.03517 29.3361V11.4198L15.3564 9.74464V31.0287C15.5698 31.0377 15.7844 31.0425 16 31.0425C16.1248 31.0425 16.2491 31.0409 16.3732 31.0379V10.056L22.9649 8.42491V29.3361C27.7661 26.8235 31.0425 21.7945 31.0425 16C31.0425 7.69223 24.3078 0.957457 16 0.957457Z" fill="black"/>
</svg>
